<svg width="100" height="100" viewBox="0 0 100 100" fill="none" xmlns="http://www.w3.org/2000/svg">
<rect width="100" height="100" rx="50" fill="#CDCDCD"/>
<path d="M50 45C51.1491 45 52.2869 44.7737 53.3485 44.3339C54.4101 43.8942 55.3747 43.2497 56.1872 42.4372C56.9997 41.6247 57.6442 40.6601 58.0839 39.5985C58.5237 38.5369 58.75 37.3991 58.75 36.25C58.75 35.1009 58.5237 33.9631 58.0839 32.9015C57.6442 31.8399 56.9997 30.8753 56.1872 30.0628C55.3747 29.2503 54.4101 28.6058 53.3485 28.1661C52.2869 27.7263 51.1491 27.5 50 27.5C47.6794 27.5 45.4538 28.4219 43.8128 30.0628C42.1719 31.7038 41.25 33.9294 41.25 36.25C41.25 38.5706 42.1719 40.7962 43.8128 42.4372C45.4538 44.0781 47.6794 45 50 45ZM27.5 71V72.5H72.5V71C72.5 65.4 72.5 62.6 71.41 60.46C70.4513 58.5785 68.9215 57.0487 67.04 56.09C64.9 55 62.1 55 56.5 55H43.5C37.9 55 35.1 55 32.96 56.09C31.0785 57.0487 29.5487 58.5785 28.59 60.46C27.5 62.6 27.5 65.4 27.5 71Z" fill="#8F8F8F" stroke="#8F8F8F" stroke-width="4" stroke-linecap="round" stroke-linejoin="round"/>
</svg>
