<svg width="28" height="28" viewBox="0 0 28 28" fill="none" xmlns="http://www.w3.org/2000/svg">
<g clip-path="url(#clip0_24_28)">
<path d="M9.75414 0.920964C6.95651 1.89149 4.54383 3.73358 2.8705 6.17666C1.19716 8.61973 0.351373 11.535 0.45736 14.4943C0.563346 17.4536 1.61552 20.3009 3.45934 22.6181C5.30316 24.9352 7.84143 26.5999 10.7013 27.3678C13.0199 27.9661 15.4491 27.9924 17.7801 27.4444C19.8917 26.9701 21.844 25.9555 23.4457 24.5C25.1128 22.9389 26.3228 20.9529 26.9457 18.7557C27.6228 16.3662 27.7433 13.8533 27.2979 11.41H14.2779V16.811H21.8182C21.6675 17.6724 21.3446 18.4945 20.8687 19.2282C20.3929 19.9619 19.7739 20.5921 19.0488 21.081C18.1281 21.69 17.0901 22.0998 16.0016 22.2841C14.91 22.4871 13.7902 22.4871 12.6985 22.2841C11.5921 22.0553 10.5454 21.5987 9.62508 20.9432C8.14665 19.8966 7.03656 18.4099 6.4532 16.695C5.85999 14.9481 5.85999 13.0542 6.4532 11.3072C6.86845 10.0827 7.5549 8.96776 8.46133 8.04565C9.49862 6.97104 10.8119 6.20289 12.257 5.82551C13.7021 5.44812 15.2232 5.47606 16.6535 5.90628C17.7708 6.24926 18.7926 6.84851 19.6373 7.65628C20.4875 6.81044 21.3362 5.96242 22.1835 5.11221C22.621 4.65503 23.0979 4.21971 23.5288 3.75159C22.2394 2.55169 20.7259 1.61803 19.0751 1.00409C16.0688 -0.0874958 12.7794 -0.116831 9.75414 0.920964Z" fill="white"/>
<path d="M9.75407 0.920928C12.7791 -0.117572 16.0685 -0.0890089 19.075 1.00187C20.7262 1.61997 22.239 2.55814 23.5266 3.76249C23.0891 4.23062 22.6275 4.66812 22.1813 5.12312C21.3325 5.97041 20.4845 6.81478 19.6372 7.65624C18.7925 6.84848 17.7708 6.24922 16.6534 5.90624C15.2236 5.47452 13.7025 5.44496 12.2571 5.8208C10.8116 6.19665 9.4975 6.96338 8.45907 8.03687C7.55264 8.95897 6.86619 10.0739 6.45095 11.2984L1.91626 7.78749C3.5394 4.56872 6.34977 2.10661 9.75407 0.920928Z" fill="#E33629"/>
<path d="M0.713138 11.2656C0.956872 10.0576 1.36152 8.88785 1.91626 7.78748L6.45095 11.3072C5.85773 13.0541 5.85773 14.948 6.45095 16.695C4.94012 17.8616 3.42856 19.0341 1.91626 20.2125C0.52753 17.4482 0.103991 14.2986 0.713138 11.2656Z" fill="#F8BD00"/>
<path d="M14.2778 11.4078H27.2978C27.7432 13.8511 27.6227 16.364 26.9456 18.7535C26.3227 20.9508 25.1127 22.9367 23.4456 24.4978C21.9822 23.356 20.5122 22.2228 19.0488 21.081C19.7743 20.5916 20.3936 19.9607 20.8694 19.2263C21.3453 18.4918 21.668 17.6688 21.8181 16.8066H14.2778C14.2756 15.0085 14.2778 13.2081 14.2778 11.4078Z" fill="#587DBD"/>
<path d="M1.91406 20.2125C3.42635 19.0458 4.93792 17.8733 6.44875 16.695C7.03327 18.4104 8.14495 19.8973 9.625 20.9431C10.5481 21.5956 11.5971 22.0485 12.705 22.2731C13.7967 22.4761 14.9164 22.4761 16.0081 22.2731C17.0966 22.0889 18.1346 21.6791 19.0553 21.07C20.5188 22.2119 21.9888 23.345 23.4522 24.4869C21.8507 25.9432 19.8984 26.9585 17.7866 27.4334C15.4556 27.9814 13.0264 27.9552 10.7078 27.3569C8.87404 26.8673 7.16117 26.0041 5.67656 24.8216C4.1052 23.574 2.82178 22.0018 1.91406 20.2125Z" fill="#319F43"/>
</g>
<defs>
<clipPath id="clip0_24_28">
<rect width="28" height="28" fill="white"/>
</clipPath>
</defs>
</svg>
