<svg width="28" height="28" viewBox="0 0 28 28" fill="none" xmlns="http://www.w3.org/2000/svg">
<path d="M14.25 3.5C21.1548 3.5 26.7512 7.86667 26.7512 13.2547C26.7512 18.6415 21.1548 23.0082 14.2512 23.0082C13.5639 23.007 12.8772 22.9632 12.1953 22.8771L6.94765 26.313C6.35122 26.6288 6.14051 26.5943 6.38574 25.8208L7.44765 21.4374C4.01908 19.6974 1.75122 16.6823 1.75122 13.2547C1.75122 7.86786 7.34646 3.5 14.2512 3.5M21.2846 13.1057L23.0346 11.4086C23.1355 11.3036 23.1919 11.1635 23.1917 11.0178C23.1915 10.872 23.1348 10.7321 23.0336 10.6273C22.9324 10.5226 22.7945 10.4613 22.649 10.4563C22.5035 10.4513 22.3617 10.503 22.2536 10.6006L19.9584 12.8245V10.9867C19.9584 10.8376 19.8992 10.6945 19.7938 10.589C19.6884 10.4835 19.5455 10.4242 19.3965 10.4242C19.2474 10.4242 19.1045 10.4835 18.9991 10.589C18.8938 10.6945 18.8346 10.8376 18.8346 10.9867V14.0341C18.8147 14.1212 18.8147 14.2116 18.8346 14.2987V16.0137C18.8346 16.1629 18.8938 16.3059 18.9991 16.4114C19.1045 16.5169 19.2474 16.5762 19.3965 16.5762C19.5455 16.5762 19.6884 16.5169 19.7938 16.4114C19.8992 16.3059 19.9584 16.1629 19.9584 16.0137V14.3893L20.4667 13.8971L22.1667 16.3199C22.2091 16.3804 22.2631 16.432 22.3254 16.4716C22.3877 16.5112 22.4573 16.5382 22.53 16.5509C22.6027 16.5636 22.6773 16.5619 22.7493 16.5458C22.8214 16.5297 22.8896 16.4995 22.95 16.457C23.0105 16.4145 23.0619 16.3605 23.1015 16.2981C23.1411 16.2357 23.168 16.1661 23.1807 16.0933C23.1934 16.0205 23.1917 15.9459 23.1756 15.8737C23.1595 15.8016 23.1294 15.7333 23.0869 15.6728L21.2846 13.1057ZM17.7631 15.3987H16.025V11.0046C16.0184 10.8601 15.9563 10.7236 15.8518 10.6237C15.7473 10.5238 15.6083 10.468 15.4637 10.468C15.3192 10.468 15.1802 10.5238 15.0756 10.6237C14.9711 10.7236 14.9091 10.8601 14.9024 11.0046V15.9612C14.9024 16.2711 15.1524 16.5237 15.4631 16.5237H17.7631C17.9122 16.5237 18.0551 16.4645 18.1605 16.359C18.2658 16.2535 18.325 16.1104 18.325 15.9612C18.325 15.812 18.2658 15.669 18.1605 15.5635C18.0551 15.458 17.9122 15.3987 17.7631 15.3987ZM10.7905 14.0985L11.6191 12.0629L12.3786 14.0973L10.7905 14.0985ZM13.7941 14.6789L13.7965 14.6598C13.7961 14.5181 13.742 14.3818 13.6453 14.2784L12.4 10.9415C12.3478 10.7824 12.2484 10.6431 12.115 10.5422C11.9816 10.4413 11.8207 10.3835 11.6536 10.3766C11.4855 10.3765 11.3212 10.4273 11.1825 10.5224C11.0438 10.6175 10.937 10.7523 10.8762 10.9093L8.89765 15.7658C8.84129 15.9039 8.84205 16.0588 8.89976 16.1963C8.95748 16.3339 9.06741 16.4429 9.20539 16.4993C9.34336 16.5557 9.49808 16.555 9.63549 16.4972C9.77291 16.4394 9.88177 16.3294 9.93813 16.1912L10.3334 15.2223H12.7976L13.1524 16.1757C13.1766 16.247 13.2149 16.3127 13.2649 16.3689C13.3149 16.4251 13.3757 16.4707 13.4436 16.5029C13.5115 16.5352 13.5852 16.5535 13.6604 16.5567C13.7355 16.5599 13.8105 16.548 13.8809 16.5217C13.9514 16.4954 14.0158 16.4552 14.0705 16.4034C14.1251 16.3517 14.1688 16.2896 14.199 16.2206C14.2292 16.1517 14.2453 16.0774 14.2463 16.0021C14.2473 15.9269 14.2332 15.8522 14.2048 15.7825L13.7941 14.6789ZM9.83813 11.0106C9.83844 10.9367 9.82416 10.8635 9.79611 10.7952C9.76805 10.7269 9.72678 10.6648 9.67467 10.6125C9.62255 10.5603 9.56063 10.5188 9.49245 10.4906C9.42427 10.4624 9.35119 10.4479 9.27741 10.4481H5.41432C5.26529 10.4481 5.12237 10.5073 5.01699 10.6128C4.91161 10.7183 4.85241 10.8614 4.85241 11.0106C4.85241 11.1598 4.91161 11.3028 5.01699 11.4083C5.12237 11.5138 5.26529 11.5731 5.41432 11.5731H6.79527V16.0256C6.79527 16.1748 6.85447 16.3178 6.95985 16.4233C7.06522 16.5288 7.20815 16.5881 7.35717 16.5881C7.5062 16.5881 7.64912 16.5288 7.7545 16.4233C7.85988 16.3178 7.91908 16.1748 7.91908 16.0256V11.5731H9.27622C9.3501 11.5734 9.42331 11.5591 9.49162 11.5309C9.55994 11.5028 9.62201 11.4613 9.67425 11.409C9.72649 11.3567 9.76787 11.2946 9.79599 11.2262C9.82412 11.1578 9.83844 11.0845 9.83813 11.0106Z" fill="#311A00"/>
</svg>
